<?xml version="1.0" encoding="utf-8"?>
<!-- Generator: Adobe Illustrator 23.0.3, SVG Export Plug-In . SVG Version: 6.00 Build 0)  -->
<svg version="1.1" id="Layer_1" xmlns="http://www.w3.org/2000/svg" xmlns:xlink="http://www.w3.org/1999/xlink" x="0px" y="0px"
	 viewBox="0 0 512 512" style="enable-background:new 0 0 512 512;" xml:space="preserve">
<style type="text/css">
	.st0{fill:#FFFFFF;}
</style>
<g id="Outline">
	<polygon class="st0" points="480,408 432,408 432,384 416,384 416,496 432,496 432,424 480,424 480,496 496,496 496,384 480,384 	
		"/>
	<path class="st0" d="M352.6,353.2l27.8,13.9c4,2,8.8,0.4,10.7-3.6c0.6-1.1,0.8-2.3,0.8-3.6v-45.9l57,13.1c18.2,4.1,31.1,20.3,31,39
		h16c0.1-26.1-17.9-48.8-43.4-54.6l-65.9-15.2l-10.7-5.4v-33.3c24.9-16.3,39.9-44,40-73.7c17.7,0,32-14.3,32-32s-14.3-32-32-32V72
		c0-30.9-25.1-56-56-56h-64c-13.8,0-27.1,5.1-37.3,14.3l10.7,11.9C276.7,35.6,286.2,32,296,32h64c22.1,0,40,17.9,40,40v12.9
		l-7.1-2.4c-42.1-14-87.7-14-129.8,0l-7.1,2.4V72c0-7,1.8-13.9,5.3-20l-13.8-8c-4.9,8.5-7.5,18.2-7.5,28v48c-17.7,0-32,14.3-32,32
		s14.3,32,32,32h16v-53.2c5.4,3.4,11.6,5.2,18,5.2c10.3,0,20.4-2,30-5.8c15.4-6.2,32.6-6.2,48.1,0c9.5,3.8,19.7,5.8,30,5.8
		c6.4,0,12.6-1.8,18-5.2V184c0,39.8-32.2,72-71.9,72c-19.4,0-37.9-7.8-51.5-21.6l-11.4,11.2c4.5,4.6,9.5,8.6,14.8,12.1v33.3l-11,5.5
		l-13,3.9V208c0-4.4-3.6-8-8-8H24c-4.4,0-8,3.6-8,8v8h49.4c4.4,12.5,18.1,19,30.6,14.6c6.8-2.4,12.2-7.8,14.6-14.6H144v32H32v-16H16
		v72c0,4.4,3.6,8,8,8h40.8c3.8,18.6,20.2,32,39.2,32h24v111.1c0,22.6,18.3,40.9,40.9,40.9c0.5,0,27.1,1,38.9-24.6l16.2-37.9V496h16
		V392c0-4.4-3.6-8-8-8c-3.3,0-6.2,2-7.4,5L212,420.5l-8.4-4.8l-11.7-67.2c5-9.2,13.5-16.1,23.6-19.1l48.6-14.6V360c0,4.4,3.6,8,8,8
		c1.2,0,2.5-0.3,3.6-0.8l27.8-13.9l16.6,11.1V424h16v-59.7L352.6,353.2z M240,168c-8.8,0-16-7.2-16-16s7.2-16,16-16V168z M432,152
		c0,8.8-7.2,16-16,16v-32C424.8,136,432,143.2,432,152z M382,120c-18.6,0-35.2-10.4-54-10.4S292.7,120,274,120c-9.9,0-18-8.1-18-18
		v-0.2l12.2-4.1c38.8-12.9,80.8-12.9,119.7,0l12.2,4.1v0.2C400,111.9,391.9,120,382,120z M376,347.1l-20.4-10.2
		c-1-0.5-2.1-0.8-3.2-0.8l18.5-29.6l5.1,2.5V347.1z M360,266v27.7l-32,51.2l-32-51.2V266C316.6,274,339.4,274,360,266z M160,296v-32
		h80v32H160z M240,216v32h-80v-32H240z M32,264h33.4c4.4,12.5,18.1,19,30.6,14.6c6.8-2.4,12.2-7.8,14.6-14.6H144v32H32V264z
		 M144,455.1V336c0-4.4-3.6-8-8-8h-32c-10.2,0-19.2-6.4-22.6-16h87.9l24.1,138.8c2.4,13.5-6.7,26.4-20.3,28.8
		c-13.5,2.4-26.4-6.7-28.8-20.3C144.1,458,144,456.5,144,455.1z M210.8,314c-8.5,2.6-16.3,7.1-22.7,13.2l-2.6-15.2h32L210.8,314z
		 M300.4,336.8L280,347.1v-38.1l5.1-2.5l18.5,29.6C302.5,336.1,301.4,336.4,300.4,336.8L300.4,336.8z"/>
	<rect x="288" y="376" class="st0" width="16" height="16"/>
	<circle class="st0" cx="368" cy="152" r="16"/>
	<circle class="st0" cx="288" cy="152" r="16"/>
	<path class="st0" d="M348,193.1c-9.1,4.5-19.2,6.9-29.4,6.9H312v16h6.6c12.7,0,25.2-3,36.5-8.6l0.4-0.2l-7.2-14.3L348,193.1z"/>
	<rect x="352" y="432" class="st0" width="48" height="16"/>
</g>
</svg>
