<svg id="Layer_5" data-name="Layer 5" xmlns="http://www.w3.org/2000/svg" viewBox="0 0 496 496"><defs><style>.cls-1{fill:#fff;}</style></defs><title>vegetable</title><path class="cls-1" d="M504,287.59a111.14,111.14,0,0,0-45.18-89A33.77,33.77,0,0,0,415,201.74c-1.16-1-2.22-2-3.42-3a33.28,33.28,0,0,0-15.24-6.24l3.53-38.79c.08-.93.12-1.86.12-2.8a31,31,0,0,0-31-31H367a31,31,0,0,0-31,31c0,.94,0,1.87.13,2.81l3.54,39a34.27,34.27,0,0,0-14.12,6c-1.43,1.07-2.7,2.3-4.08,3.43a29.47,29.47,0,0,0-2.24-2.09A46.72,46.72,0,0,0,311,164a48,48,0,0,0-41.75-75.91A47.81,47.81,0,0,0,237.38,58a47.36,47.36,0,0,0-40.17-17.9A47.94,47.94,0,0,0,110.42,32a48.24,48.24,0,0,0-44.75,36A63.93,63.93,0,0,0,52,180.86a47.8,47.8,0,0,0,13.39,56A46.31,46.31,0,0,0,64,248a48.09,48.09,0,0,0,42.24,47.66l17.7,49.56a88.31,88.31,0,0,0-22.73,24.64L59.3,360.54A22.41,22.41,0,0,0,32,382.42v3.16a22.07,22.07,0,0,0,1,6.42H32a24,24,0,0,0,0,48h1a22.07,22.07,0,0,0-1,6.42v3.16A22.45,22.45,0,0,0,54.42,472a21.94,21.94,0,0,0,4.86-.54l41.93-9.32A87.92,87.92,0,0,0,176,504h1.88a88.45,88.45,0,0,0,13.38-1l274.32-42.2a45.21,45.21,0,0,0,12.48-85.59A110.67,110.67,0,0,0,504,304.41ZM401.86,211.5A98.37,98.37,0,0,1,440,289.31V318.7a98.8,98.8,0,0,1-11.79,46.78l-64.15-9.87A159.58,159.58,0,0,1,360,320.24V287.76a159.73,159.73,0,0,1,2-24.1c2,.16,3.91.34,6,.34,22.81,0,40-10.32,40-24,0-7.55-5.22-14.26-14.27-18.66l1.17-12.94a16.69,16.69,0,0,1,7,3.1ZM367,136h2.09a15,15,0,0,1,15,15,12.26,12.26,0,0,1-.07,1.36l-7.26,79.9,6.1,2c7,2.24,9.22,5.19,9.22,5.82,0,2-8.51,8-24,8s-24-6-24-8c0-.63,2.21-3.58,9.22-5.83l6.1-2-7.26-79.89c0-.46-.06-.91-.06-1.36a15,15,0,0,1,15-15Zm-25.84,72.66,1.15,12.68c-9,4.4-14.27,11.11-14.27,18.66,0,8.82,7.19,16.18,18.37,20.34A176.54,176.54,0,0,0,344,287.76v32.48A176.47,176.47,0,0,0,347.1,353l-47.16-7.26A96.57,96.57,0,0,1,296,318.69V289.3a97.45,97.45,0,0,1,39.12-77.75A17.93,17.93,0,0,1,341.12,208.66ZM254.66,338.78A93.17,93.17,0,0,1,248,304.41V287.58a95.13,95.13,0,0,1,38.68-76.11A18,18,0,0,1,297.3,208a17.66,17.66,0,0,1,12.54,5.2A113.34,113.34,0,0,0,280,289.31V318.7a111.66,111.66,0,0,0,2.77,24.4Zm.76-240.37,1.45,8.23,8.16-1.82a31.94,31.94,0,0,1,29.79,53.57L289.31,164l5.51,5.61A31.79,31.79,0,0,1,304,192c0,.24-.05.48-.05.73a33.11,33.11,0,0,0-26.77,5.88,111.45,111.45,0,0,0-33.8,40.63q-4.56-14.16-9.5-27.06c7.4-39.09,34.85-61.72,35.13-62L264,144l-5-6.25c-1.11.89-22.75,18.56-34.9,50.44-16.65-38.22-32.36-62.95-33.37-64.52l-13.47,8.66c.22.33,12.42,19.52,26.62,50.07-23.93-9-51.12-6.52-52.68-6.36L152.79,192c12-1.21,46.11-.62,62,15.62,5.61,13.79,11.14,28.9,16,45.09C206.52,240.2,177.5,240,176,240v16c.38,0,36,.24,57.07,17A109.06,109.06,0,0,0,232,287.59v16.83A109.09,109.09,0,0,0,236.75,336l-45.49-7c-2.4-.37-4.83-.61-7.26-.79a32,32,0,0,1-29.8-43.62l2.34-6.12L151,275a31.83,31.83,0,0,1-9.65-44.66l5-7.49-8-4.07a47.94,47.94,0,0,1,8.48-88.89l5-1.43.74-5.11A32.08,32.08,0,0,1,184,96a6.26,6.26,0,0,1,.87.1c.56.08,1.13.16,1.7.2l5.73.46,2.26-5.3a31.94,31.94,0,0,1,60.86,7ZM117.64,280H112a31.76,31.76,0,0,1-29.8-43.38l2.34-6.12L79,227a31.83,31.83,0,0,1-9.66-44.66l5-7.49-8-4.07a47.95,47.95,0,0,1,8.47-88.89l5-1.43.75-5.11A32.08,32.08,0,0,1,112,48a6.88,6.88,0,0,1,.9.1c.54.08,1.08.15,1.64.2l5.76.48,2.27-5.32a31.93,31.93,0,0,1,60.85,6.95l1.45,8.23L193,56.82A29.36,29.36,0,0,1,210.52,58a47.85,47.85,0,0,0-28.1,22,48.24,48.24,0,0,0-44.75,36A63.93,63.93,0,0,0,124,228.86a47.82,47.82,0,0,0,13.39,56A46.23,46.23,0,0,0,136,296a48.14,48.14,0,0,0,15.62,35.5,87.4,87.4,0,0,0-13.7,5.28ZM48,385.58v-3.16a6.52,6.52,0,0,1,7.82-6.27l38.07,8.47C93,387,92.13,389.49,91.42,392h-37A6.43,6.43,0,0,1,48,385.58ZM24,416a8,8,0,0,1,8-8H88.4c-.23,2.64-.4,5.3-.4,8s.17,5.36.41,8H32A8,8,0,0,1,24,416Zm31.8,39.85a6.59,6.59,0,0,1-7.8-6.27v-3.16A6.43,6.43,0,0,1,54.42,440h37c.71,2.51,1.55,5,2.47,7.38ZM488,416a29.14,29.14,0,0,1-24.84,29l-274.32,42.2a72.14,72.14,0,0,1-11,.84H176a72,72,0,0,1,0-144h1.88a73.2,73.2,0,0,1,11,.83L463.15,387A29.16,29.16,0,0,1,488,416Zm0-111.59a94.69,94.69,0,0,1-27.29,66.06L444.82,368A114.76,114.76,0,0,0,456,318.69V289.3a114.75,114.75,0,0,0-29.44-76.42A17.67,17.67,0,0,1,438.7,208a17.9,17.9,0,0,1,10.62,3.49A95.08,95.08,0,0,1,488,287.59Z" transform="translate(-8 -8)"/><path class="cls-1" d="M168,376h16v80H168Z" transform="translate(-8 -8)"/><path class="cls-1" d="M232,376h16v80H232Z" transform="translate(-8 -8)"/><path class="cls-1" d="M296,376h16v80H296Z" transform="translate(-8 -8)"/><path class="cls-1" d="M360,392h16v48H360Z" transform="translate(-8 -8)"/><path class="cls-1" d="M424,400h16v32H424Z" transform="translate(-8 -8)"/></svg>